# MagicaVoxel @ Ephtracy

# group
o 

# material
mtllib fll3.mtl
usemtl palette

# normals
vn -1 0 0
vn 1 0 0
vn 0 0 1
vn 0 0 -1
vn 0 -1 0
vn 0 1 0

# texcoords
vt 0.912109 0.5
vt 0.955078 0.5

# verts
v -12.8 0 12.8
v -12.8 0 -12.8
v -12.8 0.1 12.8
v -12.8 0.1 -12.8
v 12.4 0.1 12.8
v 12.4 0.1 4.3
v 12.4 0.1 4.2
v 12.4 0.1 -4.2
v 12.4 0.1 -4.3
v 12.4 0.1 -5
v 12.4 0.1 -5.1
v 12.4 0.1 -12.8
v 12.4 1.4 10.5
v 12.4 1.4 10.4
v 12.4 1.4 -10.4
v 12.4 1.4 -10.5
v 12.4 1.5 10.5
v 12.4 1.5 10.4
v 12.4 1.5 -10.4
v 12.4 1.5 -10.5
v 12.4 1.9 12.8
v 12.4 1.9 4.3
v 12.4 1.9 4.2
v 12.4 1.9 -4.2
v 12.4 1.9 -4.3
v 12.4 1.9 -12.8
v 12.8 0 12.8
v 12.8 0 -12.8
v 12.8 0.1 4.2
v 12.8 0.1 -4.2
v 12.8 1.9 12.8
v 12.8 1.9 4.2
v 12.8 1.9 -4.2
v 12.8 1.9 -12.8
v -12.8 0 12.8
v -12.8 0.1 12.8
v 12.4 0.1 12.8
v 12.4 1.9 12.8
v 12.8 0 12.8
v 12.8 1.9 12.8
v 12.4 0.1 -4.2
v 12.4 1.9 -4.2
v 12.5 0.1 -4.2
v 12.5 1.9 -4.2
v 12.8 0.1 -4.2
v 12.8 1.9 -4.2
v 12.4 0.1 4.2
v 12.4 1.9 4.2
v 12.5 0.1 4.2
v 12.5 1.9 4.2
v 12.8 0.1 4.2
v 12.8 1.9 4.2
v -12.8 0 -12.8
v -12.8 0.1 -12.8
v 12.4 0.1 -12.8
v 12.4 1.9 -12.8
v 12.8 0 -12.8
v 12.8 1.9 -12.8
v -12.8 0 12.8
v 12.8 0 12.8
v 9.2 0 12.5
v 9.3 0 12.5
v 9.2 0 12.4
v 9.3 0 12.4
v 3.3 0 12.1
v 3.5 0 12.1
v 3.3 0 12
v 3.5 0 12
v 11.4 0 11.6
v 11.5 0 11.6
v 11.4 0 11.5
v 11.5 0 11.5
v -11.1 0 11.3
v -11 0 11.3
v -11.1 0 11.2
v -11 0 11.2
v -2 0 11.2
v -1.9 0 11.2
v -3.7 0 11.1
v -3.6 0 11.1
v -2 0 11.1
v -1.9 0 11.1
v -3.7 0 11
v -3.6 0 11
v -11 0 10.9
v -10.9 0 10.9
v -11 0 10.7
v -10.9 0 10.7
v -4.9 0 9.2
v -4.8 0 9.2
v 10.3 0 9.2
v 10.4 0 9.2
v -4.9 0 9.1
v -4.8 0 9.1
v 10.3 0 9.1
v 10.4 0 9.1
v -12.3 0 8.2
v -12.2 0 8.2
v -12.3 0 8.1
v -12.2 0 8.1
v 0.2 0 7.1
v 0.4 0 7.1
v 0.2 0 7
v 0.4 0 7
v -7.5 0 6.8
v -7.4 0 6.8
v -7.5 0 6.7
v -7.4 0 6.7
v -12.1 0 6.6
v -11.9 0 6.6
v -12 0 6.5
v -11.9 0 6.5
v -12.1 0 6.4
v -12 0 6.4
v -10.8 0 4.6
v -10.7 0 4.6
v -10.8 0 4.5
v -10.7 0 4.5
v 2.5 0 2.5
v 2.6 0 2.5
v 1.8 0 2.4
v 1.9 0 2.4
v 2.5 0 2.4
v 2.6 0 2.4
v 1.8 0 2.3
v 1.9 0 2.3
v 12.4 0 1.8
v 12.5 0 1.8
v 12.4 0 1.7
v 12.5 0 1.7
v -6.6 0 1.1
v -6.5 0 1.1
v -6.6 0 1
v -6.5 0 1
v -10.2 0 -0.299999
v -10.1 0 -0.299999
v -10.2 0 -0.4
v -10.1 0 -0.4
v 8.3 0 -2.1
v 8.5 0 -2.1
v 8.3 0 -2.2
v 8.5 0 -2.2
v 5.4 0 -3
v 5.5 0 -3
v 5.4 0 -3.1
v 5.5 0 -3.1
v -7.9 0 -3.4
v -7.8 0 -3.4
v -7.9 0 -3.5
v -7.8 0 -3.5
v 6 0 -3.7
v 6.1 0 -3.7
v 6 0 -3.8
v 6.1 0 -3.8
v -12.4 0 -5
v -12.3 0 -5
v 12.3 0 -5
v 12.4 0 -5
v -12.4 0 -5.1
v -12.3 0 -5.1
v 12.3 0 -5.1
v 12.4 0 -5.1
v 11.4 0 -5.3
v 11.5 0 -5.3
v 11.4 0 -5.4
v 11.5 0 -5.4
v -6.6 0 -6.4
v -6.5 0 -6.4
v -6.6 0 -6.5
v -6.5 0 -6.5
v -9 0 -7.7
v -8.9 0 -7.7
v -9 0 -7.8
v -8.9 0 -7.8
v 4.3 0 -8.3
v 4.4 0 -8.3
v 4.3 0 -8.4
v 4.4 0 -8.4
v 9.3 0 -10.1
v 9.4 0 -10.1
v 9.3 0 -10.2
v 9.4 0 -10.2
v -12.8 0 -12.8
v 12.8 0 -12.8
v -12.8 0.1 12.8
v 12.4 0.1 12.8
v 9.2 0.1 12.5
v 9.3 0.1 12.5
v 9.2 0.1 12.4
v 9.3 0.1 12.4
v 3.3 0.1 12.1
v 3.5 0.1 12.1
v 3.3 0.1 12
v 3.5 0.1 12
v 11.4 0.1 11.6
v 11.5 0.1 11.6
v 11.4 0.1 11.5
v 11.5 0.1 11.5
v -11.1 0.1 11.3
v -11 0.1 11.3
v -11.1 0.1 11.2
v -11 0.1 11.2
v -2 0.1 11.2
v -1.9 0.1 11.2
v -3.7 0.1 11.1
v -3.6 0.1 11.1
v -2 0.1 11.1
v -1.9 0.1 11.1
v -3.7 0.1 11
v -3.6 0.1 11
v -11 0.1 10.9
v -10.9 0.1 10.9
v -11 0.1 10.7
v -10.9 0.1 10.7
v -4.9 0.1 9.2
v -4.8 0.1 9.2
v 10.3 0.1 9.2
v 10.4 0.1 9.2
v -4.9 0.1 9.1
v -4.8 0.1 9.1
v 10.3 0.1 9.1
v 10.4 0.1 9.1
v -12.3 0.1 8.2
v -12.2 0.1 8.2
v -12.3 0.1 8.1
v -12.2 0.1 8.1
v 0.2 0.1 7.1
v 0.4 0.1 7.1
v 0.2 0.1 7
v 0.4 0.1 7
v -7.5 0.1 6.8
v -7.4 0.1 6.8
v -7.5 0.1 6.7
v -7.4 0.1 6.7
v -12.1 0.1 6.6
v -11.9 0.1 6.6
v -12 0.1 6.5
v -11.9 0.1 6.5
v -12.1 0.1 6.4
v -12 0.1 6.4
v -10.8 0.1 4.6
v -10.7 0.1 4.6
v -10.8 0.1 4.5
v -10.7 0.1 4.5
v 12.4 0.1 4.3
v 12.4 0.1 4.2
v 12.5 0.1 4.2
v 12.8 0.1 4.2
v 2.5 0.1 2.5
v 2.6 0.1 2.5
v 1.8 0.1 2.4
v 1.9 0.1 2.4
v 2.5 0.1 2.4
v 2.6 0.1 2.4
v 1.8 0.1 2.3
v 1.9 0.1 2.3
v 12.4 0.1 1.8
v 12.5 0.1 1.8
v 12.4 0.1 1.7
v 12.5 0.1 1.7
v -6.6 0.1 1.1
v -6.5 0.1 1.1
v -6.6 0.1 1
v -6.5 0.1 1
v -10.2 0.1 -0.299999
v -10.1 0.1 -0.299999
v -10.2 0.1 -0.4
v -10.1 0.1 -0.4
v 8.3 0.1 -2.1
v 8.5 0.1 -2.1
v 8.3 0.1 -2.2
v 8.5 0.1 -2.2
v 5.4 0.1 -3
v 5.5 0.1 -3
v 5.4 0.1 -3.1
v 5.5 0.1 -3.1
v -7.9 0.1 -3.4
v -7.8 0.1 -3.4
v -7.9 0.1 -3.5
v -7.8 0.1 -3.5
v 6 0.1 -3.7
v 6.1 0.1 -3.7
v 6 0.1 -3.8
v 6.1 0.1 -3.8
v 12.4 0.1 -4.2
v 12.5 0.1 -4.2
v 12.8 0.1 -4.2
v 12.4 0.1 -4.3
v -12.4 0.1 -5
v -12.3 0.1 -5
v 12.3 0.1 -5
v 12.4 0.1 -5
v -12.4 0.1 -5.1
v -12.3 0.1 -5.1
v 12.3 0.1 -5.1
v 12.4 0.1 -5.1
v 11.4 0.1 -5.3
v 11.5 0.1 -5.3
v 11.4 0.1 -5.4
v 11.5 0.1 -5.4
v -6.6 0.1 -6.4
v -6.5 0.1 -6.4
v -6.6 0.1 -6.5
v -6.5 0.1 -6.5
v -9 0.1 -7.7
v -8.9 0.1 -7.7
v -9 0.1 -7.8
v -8.9 0.1 -7.8
v 4.3 0.1 -8.3
v 4.4 0.1 -8.3
v 4.3 0.1 -8.4
v 4.4 0.1 -8.4
v 9.3 0.1 -10.1
v 9.4 0.1 -10.1
v 9.3 0.1 -10.2
v 9.4 0.1 -10.2
v -12.8 0.1 -12.8
v 12.4 0.1 -12.8
v 12.4 1.9 12.8
v 12.8 1.9 12.8
v 12.4 1.9 4.3
v 12.5 1.9 4.3
v 12.4 1.9 4.2
v 12.5 1.9 4.2
v 12.8 1.9 4.2
v 12.4 1.9 -4.2
v 12.5 1.9 -4.2
v 12.8 1.9 -4.2
v 12.4 1.9 -4.3
v 12.5 1.9 -4.3
v 12.4 1.9 -12.8
v 12.8 1.9 -12.8

# faces
f 3/2/1 2/2/1 1/2/1
f 4/2/1 2/2/1 3/2/1
f 13/2/1 6/2/1 5/2/1
f 14/2/1 6/2/1 13/2/1
f 15/2/1 12/2/1 11/2/1
f 15/2/1 10/2/1 9/2/1
f 15/2/1 11/2/1 10/2/1
f 16/2/1 12/2/1 15/2/1
f 17/1/1 14/1/1 13/1/1
f 17/2/1 13/2/1 5/2/1
f 18/2/1 6/2/1 14/2/1
f 18/1/1 14/1/1 17/1/1
f 19/1/1 16/1/1 15/1/1
f 19/2/1 15/2/1 9/2/1
f 20/2/1 12/2/1 16/2/1
f 20/1/1 16/1/1 19/1/1
f 21/2/1 17/2/1 5/2/1
f 21/2/1 18/2/1 17/2/1
f 22/1/1 7/1/1 6/1/1
f 22/2/1 18/2/1 21/2/1
f 22/2/1 6/2/1 18/2/1
f 23/1/1 7/1/1 22/1/1
f 24/1/1 9/1/1 8/1/1
f 25/2/1 19/2/1 9/2/1
f 25/1/1 9/1/1 24/1/1
f 25/2/1 20/2/1 19/2/1
f 26/2/1 12/2/1 20/2/1
f 26/2/1 20/2/1 25/2/1
f 27/2/2 28/2/2 29/2/2
f 29/2/2 28/2/2 30/2/2
f 27/2/2 29/2/2 31/2/2
f 31/2/2 29/2/2 32/2/2
f 30/2/2 28/2/2 33/2/2
f 33/2/2 28/2/2 34/2/2
f 37/2/3 36/2/3 35/2/3
f 39/2/3 37/2/3 35/2/3
f 39/2/3 38/2/3 37/2/3
f 40/2/3 38/2/3 39/2/3
f 43/1/3 42/1/3 41/1/3
f 44/1/3 42/1/3 43/1/3
f 45/2/3 44/2/3 43/2/3
f 46/2/3 44/2/3 45/2/3
f 47/1/4 48/1/4 49/1/4
f 49/1/4 48/1/4 50/1/4
f 49/2/4 50/2/4 51/2/4
f 51/2/4 50/2/4 52/2/4
f 53/2/4 54/2/4 55/2/4
f 53/2/4 55/2/4 57/2/4
f 55/2/4 56/2/4 57/2/4
f 57/2/4 56/2/4 58/2/4
f 61/2/5 60/2/5 59/2/5
f 62/2/5 60/2/5 61/2/5
f 63/2/5 61/2/5 59/2/5
f 63/1/5 62/1/5 61/1/5
f 64/2/5 60/2/5 62/2/5
f 64/1/5 62/1/5 63/1/5
f 65/2/5 63/2/5 59/2/5
f 65/2/5 64/2/5 63/2/5
f 66/2/5 64/2/5 65/2/5
f 67/2/5 65/2/5 59/2/5
f 67/1/5 66/1/5 65/1/5
f 68/2/5 64/2/5 66/2/5
f 68/1/5 66/1/5 67/1/5
f 69/2/5 60/2/5 64/2/5
f 69/2/5 64/2/5 68/2/5
f 69/2/5 68/2/5 67/2/5
f 70/2/5 60/2/5 69/2/5
f 71/2/5 69/2/5 67/2/5
f 71/1/5 70/1/5 69/1/5
f 72/2/5 60/2/5 70/2/5
f 72/1/5 70/1/5 71/1/5
f 73/2/5 67/2/5 59/2/5
f 73/2/5 71/2/5 67/2/5
f 73/2/5 72/2/5 71/2/5
f 74/2/5 72/2/5 73/2/5
f 75/2/5 73/2/5 59/2/5
f 75/1/5 74/1/5 73/1/5
f 76/2/5 72/2/5 74/2/5
f 76/1/5 74/1/5 75/1/5
f 77/2/5 72/2/5 76/2/5
f 78/2/5 72/2/5 77/2/5
f 79/2/5 76/2/5 75/2/5
f 79/2/5 77/2/5 76/2/5
f 80/2/5 77/2/5 79/2/5
f 81/1/5 78/1/5 77/1/5
f 81/2/5 77/2/5 80/2/5
f 82/2/5 72/2/5 78/2/5
f 82/1/5 78/1/5 81/1/5
f 83/1/5 80/1/5 79/1/5
f 83/2/5 79/2/5 75/2/5
f 84/2/5 81/2/5 80/2/5
f 84/1/5 80/1/5 83/1/5
f 84/2/5 82/2/5 81/2/5
f 85/2/5 83/2/5 75/2/5
f 85/2/5 84/2/5 83/2/5
f 86/2/5 84/2/5 85/2/5
f 87/2/5 85/2/5 75/2/5
f 87/1/5 86/1/5 85/1/5
f 88/2/5 84/2/5 86/2/5
f 88/1/5 86/1/5 87/1/5
f 89/2/5 88/2/5 87/2/5
f 89/2/5 84/2/5 88/2/5
f 90/2/5 84/2/5 89/2/5
f 91/2/5 82/2/5 84/2/5
f 91/2/5 84/2/5 90/2/5
f 91/2/5 72/2/5 82/2/5
f 92/2/5 72/2/5 91/2/5
f 93/1/5 90/1/5 89/1/5
f 93/2/5 89/2/5 87/2/5
f 94/2/5 91/2/5 90/2/5
f 94/1/5 90/1/5 93/1/5
f 95/1/5 92/1/5 91/1/5
f 95/2/5 91/2/5 94/2/5
f 96/2/5 72/2/5 92/2/5
f 96/1/5 92/1/5 95/1/5
f 97/2/5 75/2/5 59/2/5
f 97/2/5 95/2/5 94/2/5
f 97/2/5 96/2/5 95/2/5
f 97/2/5 93/2/5 87/2/5
f 97/2/5 87/2/5 75/2/5
f 97/2/5 94/2/5 93/2/5
f 98/2/5 96/2/5 97/2/5
f 99/2/5 97/2/5 59/2/5
f 99/1/5 98/1/5 97/1/5
f 100/2/5 96/2/5 98/2/5
f 100/1/5 98/1/5 99/1/5
f 101/2/5 100/2/5 99/2/5
f 101/2/5 96/2/5 100/2/5
f 102/2/5 96/2/5 101/2/5
f 103/2/5 101/2/5 99/2/5
f 103/1/5 102/1/5 101/1/5
f 104/2/5 96/2/5 102/2/5
f 104/1/5 102/1/5 103/1/5
f 105/2/5 103/2/5 99/2/5
f 105/2/5 104/2/5 103/2/5
f 106/2/5 104/2/5 105/2/5
f 107/2/5 105/2/5 99/2/5
f 107/1/5 106/1/5 105/1/5
f 108/2/5 104/2/5 106/2/5
f 108/1/5 106/1/5 107/1/5
f 109/2/5 107/2/5 99/2/5
f 109/2/5 108/2/5 107/2/5
f 110/2/5 108/2/5 109/2/5
f 111/1/5 110/1/5 109/1/5
f 112/2/5 108/2/5 110/2/5
f 112/1/5 110/1/5 111/1/5
f 113/2/5 109/2/5 99/2/5
f 113/1/5 111/1/5 109/1/5
f 114/2/5 112/2/5 111/2/5
f 114/1/5 111/1/5 113/1/5
f 115/2/5 108/2/5 112/2/5
f 115/2/5 112/2/5 114/2/5
f 115/2/5 114/2/5 113/2/5
f 116/2/5 108/2/5 115/2/5
f 117/2/5 115/2/5 113/2/5
f 117/1/5 116/1/5 115/1/5
f 118/2/5 108/2/5 116/2/5
f 118/1/5 116/1/5 117/1/5
f 119/2/5 96/2/5 104/2/5
f 119/2/5 108/2/5 118/2/5
f 119/2/5 118/2/5 117/2/5
f 119/2/5 104/2/5 108/2/5
f 120/2/5 96/2/5 119/2/5
f 121/2/5 119/2/5 117/2/5
f 122/2/5 119/2/5 121/2/5
f 123/1/5 120/1/5 119/1/5
f 123/2/5 119/2/5 122/2/5
f 124/2/5 96/2/5 120/2/5
f 124/1/5 120/1/5 123/1/5
f 125/1/5 122/1/5 121/1/5
f 125/2/5 121/2/5 117/2/5
f 126/2/5 123/2/5 122/2/5
f 126/1/5 122/1/5 125/1/5
f 126/2/5 124/2/5 123/2/5
f 127/2/5 60/2/5 72/2/5
f 127/2/5 124/2/5 126/2/5
f 127/2/5 126/2/5 125/2/5
f 127/2/5 96/2/5 124/2/5
f 127/2/5 72/2/5 96/2/5
f 128/2/5 60/2/5 127/2/5
f 129/2/5 127/2/5 125/2/5
f 129/1/5 128/1/5 127/1/5
f 130/2/5 60/2/5 128/2/5
f 130/1/5 128/1/5 129/1/5
f 131/2/5 125/2/5 117/2/5
f 131/2/5 129/2/5 125/2/5
f 131/2/5 130/2/5 129/2/5
f 132/2/5 130/2/5 131/2/5
f 133/2/5 131/2/5 117/2/5
f 133/1/5 132/1/5 131/1/5
f 134/2/5 130/2/5 132/2/5
f 134/1/5 132/1/5 133/1/5
f 135/2/5 133/2/5 117/2/5
f 135/2/5 134/2/5 133/2/5
f 136/2/5 134/2/5 135/2/5
f 137/2/5 135/2/5 117/2/5
f 137/1/5 136/1/5 135/1/5
f 138/2/5 134/2/5 136/2/5
f 138/1/5 136/1/5 137/1/5
f 139/2/5 130/2/5 134/2/5
f 139/2/5 134/2/5 138/2/5
f 139/2/5 138/2/5 137/2/5
f 140/2/5 130/2/5 139/2/5
f 141/2/5 139/2/5 137/2/5
f 141/1/5 140/1/5 139/1/5
f 142/2/5 130/2/5 140/2/5
f 142/1/5 140/1/5 141/1/5
f 143/2/5 141/2/5 137/2/5
f 143/2/5 142/2/5 141/2/5
f 144/2/5 142/2/5 143/2/5
f 145/2/5 143/2/5 137/2/5
f 145/1/5 144/1/5 143/1/5
f 146/2/5 142/2/5 144/2/5
f 146/1/5 144/1/5 145/1/5
f 147/2/5 145/2/5 137/2/5
f 147/2/5 146/2/5 145/2/5
f 148/2/5 146/2/5 147/2/5
f 149/2/5 147/2/5 137/2/5
f 149/1/5 148/1/5 147/1/5
f 150/2/5 146/2/5 148/2/5
f 150/1/5 148/1/5 149/1/5
f 151/2/5 142/2/5 146/2/5
f 151/2/5 146/2/5 150/2/5
f 151/2/5 150/2/5 149/2/5
f 152/2/5 142/2/5 151/2/5
f 153/2/5 151/2/5 149/2/5
f 153/1/5 152/1/5 151/1/5
f 154/2/5 142/2/5 152/2/5
f 154/1/5 152/1/5 153/1/5
f 155/2/5 113/2/5 99/2/5
f 155/2/5 99/2/5 59/2/5
f 155/2/5 154/2/5 153/2/5
f 155/2/5 153/2/5 149/2/5
f 155/2/5 149/2/5 137/2/5
f 155/2/5 117/2/5 113/2/5
f 155/2/5 137/2/5 117/2/5
f 156/2/5 154/2/5 155/2/5
f 157/2/5 142/2/5 154/2/5
f 157/2/5 154/2/5 156/2/5
f 157/2/5 130/2/5 142/2/5
f 158/2/5 130/2/5 157/2/5
f 159/1/5 156/1/5 155/1/5
f 159/2/5 155/2/5 59/2/5
f 160/2/5 157/2/5 156/2/5
f 160/1/5 156/1/5 159/1/5
f 161/1/5 158/1/5 157/1/5
f 161/2/5 157/2/5 160/2/5
f 162/2/5 130/2/5 158/2/5
f 162/1/5 158/1/5 161/1/5
f 163/2/5 161/2/5 160/2/5
f 163/2/5 160/2/5 159/2/5
f 163/2/5 162/2/5 161/2/5
f 164/2/5 162/2/5 163/2/5
f 165/2/5 163/2/5 159/2/5
f 165/1/5 164/1/5 163/1/5
f 166/2/5 162/2/5 164/2/5
f 166/1/5 164/1/5 165/1/5
f 167/2/5 165/2/5 159/2/5
f 167/2/5 166/2/5 165/2/5
f 168/2/5 166/2/5 167/2/5
f 169/2/5 167/2/5 159/2/5
f 169/1/5 168/1/5 167/1/5
f 170/2/5 166/2/5 168/2/5
f 170/1/5 168/1/5 169/1/5
f 171/2/5 169/2/5 159/2/5
f 171/2/5 170/2/5 169/2/5
f 172/2/5 170/2/5 171/2/5
f 173/2/5 171/2/5 159/2/5
f 173/1/5 172/1/5 171/1/5
f 174/2/5 170/2/5 172/2/5
f 174/1/5 172/1/5 173/1/5
f 175/2/5 166/2/5 170/2/5
f 175/2/5 170/2/5 174/2/5
f 175/2/5 174/2/5 173/2/5
f 176/2/5 166/2/5 175/2/5
f 177/2/5 175/2/5 173/2/5
f 177/1/5 176/1/5 175/1/5
f 178/2/5 166/2/5 176/2/5
f 178/1/5 176/1/5 177/1/5
f 179/2/5 178/2/5 177/2/5
f 179/2/5 166/2/5 178/2/5
f 180/2/5 166/2/5 179/2/5
f 181/2/5 179/2/5 177/2/5
f 181/1/5 180/1/5 179/1/5
f 182/2/5 166/2/5 180/2/5
f 182/1/5 180/1/5 181/1/5
f 183/2/5 159/2/5 59/2/5
f 183/2/5 173/2/5 159/2/5
f 183/2/5 182/2/5 181/2/5
f 183/2/5 181/2/5 177/2/5
f 183/2/5 177/2/5 173/2/5
f 184/2/5 60/2/5 130/2/5
f 184/2/5 182/2/5 183/2/5
f 184/2/5 130/2/5 162/2/5
f 184/2/5 162/2/5 166/2/5
f 184/2/5 166/2/5 182/2/5
f 185/2/6 186/2/6 187/2/6
f 187/2/6 186/2/6 188/2/6
f 185/2/6 187/2/6 189/2/6
f 187/1/6 188/1/6 189/1/6
f 188/2/6 186/2/6 190/2/6
f 189/1/6 188/1/6 190/1/6
f 185/2/6 189/2/6 191/2/6
f 189/2/6 190/2/6 191/2/6
f 191/2/6 190/2/6 192/2/6
f 185/2/6 191/2/6 193/2/6
f 191/1/6 192/1/6 193/1/6
f 192/2/6 190/2/6 194/2/6
f 193/1/6 192/1/6 194/1/6
f 190/2/6 186/2/6 195/2/6
f 194/2/6 190/2/6 195/2/6
f 193/2/6 194/2/6 195/2/6
f 195/2/6 186/2/6 196/2/6
f 193/2/6 195/2/6 197/2/6
f 195/1/6 196/1/6 197/1/6
f 196/2/6 186/2/6 198/2/6
f 197/1/6 196/1/6 198/1/6
f 185/2/6 193/2/6 199/2/6
f 193/2/6 197/2/6 199/2/6
f 197/2/6 198/2/6 199/2/6
f 199/2/6 198/2/6 200/2/6
f 185/2/6 199/2/6 201/2/6
f 199/1/6 200/1/6 201/1/6
f 200/2/6 198/2/6 202/2/6
f 201/1/6 200/1/6 202/1/6
f 202/2/6 198/2/6 203/2/6
f 203/2/6 198/2/6 204/2/6
f 201/2/6 202/2/6 205/2/6
f 202/2/6 203/2/6 205/2/6
f 205/2/6 203/2/6 206/2/6
f 203/1/6 204/1/6 207/1/6
f 206/2/6 203/2/6 207/2/6
f 204/2/6 198/2/6 208/2/6
f 207/1/6 204/1/6 208/1/6
f 205/1/6 206/1/6 209/1/6
f 201/2/6 205/2/6 209/2/6
f 206/2/6 207/2/6 210/2/6
f 209/1/6 206/1/6 210/1/6
f 207/2/6 208/2/6 210/2/6
f 201/2/6 209/2/6 211/2/6
f 209/2/6 210/2/6 211/2/6
f 211/2/6 210/2/6 212/2/6
f 201/2/6 211/2/6 213/2/6
f 211/1/6 212/1/6 213/1/6
f 212/2/6 210/2/6 214/2/6
f 213/1/6 212/1/6 214/1/6
f 213/2/6 214/2/6 215/2/6
f 214/2/6 210/2/6 215/2/6
f 215/2/6 210/2/6 216/2/6
f 210/2/6 208/2/6 217/2/6
f 216/2/6 210/2/6 217/2/6
f 208/2/6 198/2/6 217/2/6
f 217/2/6 198/2/6 218/2/6
f 215/1/6 216/1/6 219/1/6
f 213/2/6 215/2/6 219/2/6
f 216/2/6 217/2/6 220/2/6
f 219/1/6 216/1/6 220/1/6
f 217/1/6 218/1/6 221/1/6
f 220/2/6 217/2/6 221/2/6
f 218/2/6 198/2/6 222/2/6
f 221/1/6 218/1/6 222/1/6
f 185/2/6 201/2/6 223/2/6
f 220/2/6 221/2/6 223/2/6
f 221/2/6 222/2/6 223/2/6
f 213/2/6 219/2/6 223/2/6
f 201/2/6 213/2/6 223/2/6
f 219/2/6 220/2/6 223/2/6
f 223/2/6 222/2/6 224/2/6
f 185/2/6 223/2/6 225/2/6
f 223/1/6 224/1/6 225/1/6
f 224/2/6 222/2/6 226/2/6
f 225/1/6 224/1/6 226/1/6
f 225/2/6 226/2/6 227/2/6
f 226/2/6 222/2/6 227/2/6
f 227/2/6 222/2/6 228/2/6
f 225/2/6 227/2/6 229/2/6
f 227/1/6 228/1/6 229/1/6
f 228/2/6 222/2/6 230/2/6
f 229/1/6 228/1/6 230/1/6
f 225/2/6 229/2/6 231/2/6
f 229/2/6 230/2/6 231/2/6
f 231/2/6 230/2/6 232/2/6
f 225/2/6 231/2/6 233/2/6
f 231/1/6 232/1/6 233/1/6
f 232/2/6 230/2/6 234/2/6
f 233/1/6 232/1/6 234/1/6
f 225/2/6 233/2/6 235/2/6
f 233/2/6 234/2/6 235/2/6
f 235/2/6 234/2/6 236/2/6
f 235/1/6 236/1/6 237/1/6
f 236/2/6 234/2/6 238/2/6
f 237/1/6 236/1/6 238/1/6
f 225/2/6 235/2/6 239/2/6
f 235/1/6 237/1/6 239/1/6
f 237/2/6 238/2/6 240/2/6
f 239/1/6 237/1/6 240/1/6
f 238/2/6 234/2/6 241/2/6
f 240/2/6 238/2/6 241/2/6
f 239/2/6 240/2/6 241/2/6
f 241/2/6 234/2/6 242/2/6
f 239/2/6 241/2/6 243/2/6
f 241/1/6 242/1/6 243/1/6
f 242/2/6 234/2/6 244/2/6
f 243/1/6 242/1/6 244/1/6
f 198/2/6 186/2/6 245/2/6
f 244/2/6 234/2/6 245/2/6
f 243/2/6 244/2/6 245/2/6
f 222/2/6 198/2/6 245/2/6
f 230/2/6 222/2/6 245/2/6
f 234/2/6 230/2/6 245/2/6
f 243/2/6 245/2/6 246/2/6
f 243/2/6 246/2/6 249/2/6
f 247/2/6 248/2/6 249/2/6
f 246/2/6 247/2/6 249/2/6
f 249/2/6 248/2/6 250/2/6
f 243/2/6 249/2/6 251/2/6
f 251/2/6 249/2/6 252/2/6
f 249/1/6 250/1/6 253/1/6
f 252/2/6 249/2/6 253/2/6
f 250/2/6 248/2/6 254/2/6
f 253/1/6 250/1/6 254/1/6
f 251/1/6 252/1/6 255/1/6
f 243/2/6 251/2/6 255/2/6
f 252/2/6 253/2/6 256/2/6
f 255/1/6 252/1/6 256/1/6
f 253/2/6 254/2/6 256/2/6
f 254/2/6 248/2/6 257/2/6
f 256/2/6 254/2/6 257/2/6
f 255/2/6 256/2/6 257/2/6
f 257/2/6 248/2/6 258/2/6
f 255/2/6 257/2/6 259/2/6
f 257/1/6 258/1/6 259/1/6
f 258/2/6 248/2/6 260/2/6
f 259/1/6 258/1/6 260/1/6
f 243/2/6 255/2/6 261/2/6
f 255/2/6 259/2/6 261/2/6
f 259/2/6 260/2/6 261/2/6
f 261/2/6 260/2/6 262/2/6
f 243/2/6 261/2/6 263/2/6
f 261/1/6 262/1/6 263/1/6
f 262/2/6 260/2/6 264/2/6
f 263/1/6 262/1/6 264/1/6
f 243/2/6 263/2/6 265/2/6
f 263/2/6 264/2/6 265/2/6
f 265/2/6 264/2/6 266/2/6
f 243/2/6 265/2/6 267/2/6
f 265/1/6 266/1/6 267/1/6
f 266/2/6 264/2/6 268/2/6
f 267/1/6 266/1/6 268/1/6
f 264/2/6 260/2/6 269/2/6
f 268/2/6 264/2/6 269/2/6
f 267/2/6 268/2/6 269/2/6
f 269/2/6 260/2/6 270/2/6
f 267/2/6 269/2/6 271/2/6
f 269/1/6 270/1/6 271/1/6
f 270/2/6 260/2/6 272/2/6
f 271/1/6 270/1/6 272/1/6
f 267/2/6 271/2/6 273/2/6
f 271/2/6 272/2/6 273/2/6
f 273/2/6 272/2/6 274/2/6
f 267/2/6 273/2/6 275/2/6
f 273/1/6 274/1/6 275/1/6
f 274/2/6 272/2/6 276/2/6
f 275/1/6 274/1/6 276/1/6
f 267/2/6 275/2/6 277/2/6
f 275/2/6 276/2/6 277/2/6
f 277/2/6 276/2/6 278/2/6
f 267/2/6 277/2/6 279/2/6
f 277/1/6 278/1/6 279/1/6
f 278/2/6 276/2/6 280/2/6
f 279/1/6 278/1/6 280/1/6
f 276/2/6 272/2/6 281/2/6
f 280/2/6 276/2/6 281/2/6
f 279/2/6 280/2/6 281/2/6
f 281/2/6 272/2/6 282/2/6
f 279/2/6 281/2/6 283/2/6
f 281/1/6 282/1/6 283/1/6
f 282/2/6 272/2/6 284/2/6
f 283/1/6 282/1/6 284/1/6
f 272/2/6 260/2/6 285/2/6
f 284/2/6 272/2/6 285/2/6
f 283/2/6 284/2/6 285/2/6
f 260/2/6 248/2/6 286/2/6
f 285/2/6 260/2/6 286/2/6
f 286/2/6 248/2/6 287/2/6
f 283/2/6 285/2/6 288/2/6
f 239/2/6 243/2/6 289/2/6
f 225/2/6 239/2/6 289/2/6
f 283/2/6 288/2/6 289/2/6
f 267/2/6 279/2/6 289/2/6
f 279/2/6 283/2/6 289/2/6
f 243/2/6 267/2/6 289/2/6
f 185/2/6 225/2/6 289/2/6
f 289/2/6 288/2/6 290/2/6
f 290/2/6 288/2/6 291/2/6
f 291/2/6 288/2/6 292/2/6
f 185/2/6 289/2/6 293/2/6
f 289/1/6 290/1/6 293/1/6
f 290/2/6 291/2/6 294/2/6
f 293/1/6 290/1/6 294/1/6
f 291/1/6 292/1/6 295/1/6
f 294/2/6 291/2/6 295/2/6
f 295/1/6 292/1/6 296/1/6
f 293/2/6 294/2/6 297/2/6
f 294/2/6 295/2/6 297/2/6
f 295/2/6 296/2/6 297/2/6
f 297/2/6 296/2/6 298/2/6
f 293/2/6 297/2/6 299/2/6
f 297/1/6 298/1/6 299/1/6
f 298/2/6 296/2/6 300/2/6
f 299/1/6 298/1/6 300/1/6
f 293/2/6 299/2/6 301/2/6
f 299/2/6 300/2/6 301/2/6
f 301/2/6 300/2/6 302/2/6
f 293/2/6 301/2/6 303/2/6
f 301/1/6 302/1/6 303/1/6
f 302/2/6 300/2/6 304/2/6
f 303/1/6 302/1/6 304/1/6
f 293/2/6 303/2/6 305/2/6
f 303/2/6 304/2/6 305/2/6
f 305/2/6 304/2/6 306/2/6
f 293/2/6 305/2/6 307/2/6
f 305/1/6 306/1/6 307/1/6
f 306/2/6 304/2/6 308/2/6
f 307/1/6 306/1/6 308/1/6
f 304/2/6 300/2/6 309/2/6
f 308/2/6 304/2/6 309/2/6
f 307/2/6 308/2/6 309/2/6
f 309/2/6 300/2/6 310/2/6
f 307/2/6 309/2/6 311/2/6
f 309/1/6 310/1/6 311/1/6
f 310/2/6 300/2/6 312/2/6
f 311/1/6 310/1/6 312/1/6
f 311/2/6 312/2/6 313/2/6
f 312/2/6 300/2/6 313/2/6
f 313/2/6 300/2/6 314/2/6
f 311/2/6 313/2/6 315/2/6
f 313/1/6 314/1/6 315/1/6
f 314/2/6 300/2/6 316/2/6
f 315/1/6 314/1/6 316/1/6
f 185/2/6 293/2/6 317/2/6
f 293/2/6 307/2/6 317/2/6
f 315/2/6 316/2/6 317/2/6
f 311/2/6 315/2/6 317/2/6
f 307/2/6 311/2/6 317/2/6
f 316/2/6 300/2/6 318/2/6
f 317/2/6 316/2/6 318/2/6
f 300/2/6 296/2/6 318/2/6
f 319/2/6 320/2/6 321/2/6
f 321/2/6 320/2/6 322/2/6
f 321/1/6 322/1/6 323/1/6
f 322/2/6 320/2/6 324/2/6
f 323/1/6 322/1/6 324/1/6
f 324/2/6 320/2/6 325/2/6
f 326/1/6 327/1/6 329/1/6
f 327/2/6 328/2/6 330/2/6
f 329/1/6 327/1/6 330/1/6
f 329/2/6 330/2/6 331/2/6
f 330/2/6 328/2/6 332/2/6
f 331/2/6 330/2/6 332/2/6
